<mxfile host="app.diagrams.net" modified="2021-10-10T12:36:02.553Z" agent="5.0 (Windows NT 10.0; Win64; x64) AppleWebKit/537.36 (KHTML, like Gecko) Chrome/94.0.4606.71 Safari/537.36" etag="d5HHQJM8g-_4BRtaktCM" version="14.6.11" type="github">
  <diagram id="NQUca6iFrGdpErx9BD0C" name="Page-1">
    <mxGraphModel dx="1038" dy="547" grid="1" gridSize="10" guides="1" tooltips="1" connect="1" arrows="1" fold="1" page="1" pageScale="1" pageWidth="827" pageHeight="1169" math="0" shadow="0">
      <root>
        <mxCell id="0" />
        <mxCell id="1" parent="0" />
        <mxCell id="kikHyL2zl7gTklkctfnL-1" value="" style="rounded=1;whiteSpace=wrap;html=1;" vertex="1" parent="1">
          <mxGeometry x="359" y="40" width="110" height="50" as="geometry" />
        </mxCell>
        <mxCell id="kikHyL2zl7gTklkctfnL-2" value="" style="ellipse;whiteSpace=wrap;html=1;aspect=fixed;" vertex="1" parent="1">
          <mxGeometry x="394" y="110" width="40" height="40" as="geometry" />
        </mxCell>
        <mxCell id="kikHyL2zl7gTklkctfnL-3" value="" style="rounded=1;whiteSpace=wrap;html=1;" vertex="1" parent="1">
          <mxGeometry x="359" y="190" width="110" height="50" as="geometry" />
        </mxCell>
        <mxCell id="kikHyL2zl7gTklkctfnL-4" value="" style="ellipse;whiteSpace=wrap;html=1;aspect=fixed;" vertex="1" parent="1">
          <mxGeometry x="394" y="260" width="40" height="40" as="geometry" />
        </mxCell>
        <mxCell id="kikHyL2zl7gTklkctfnL-5" value="" style="rounded=1;whiteSpace=wrap;html=1;" vertex="1" parent="1">
          <mxGeometry x="160" y="360" width="110" height="50" as="geometry" />
        </mxCell>
        <mxCell id="kikHyL2zl7gTklkctfnL-6" value="" style="ellipse;whiteSpace=wrap;html=1;aspect=fixed;" vertex="1" parent="1">
          <mxGeometry x="195" y="430" width="40" height="40" as="geometry" />
        </mxCell>
        <mxCell id="kikHyL2zl7gTklkctfnL-7" value="" style="rounded=1;whiteSpace=wrap;html=1;" vertex="1" parent="1">
          <mxGeometry x="560" y="360" width="110" height="50" as="geometry" />
        </mxCell>
        <mxCell id="kikHyL2zl7gTklkctfnL-8" value="" style="ellipse;whiteSpace=wrap;html=1;aspect=fixed;" vertex="1" parent="1">
          <mxGeometry x="595" y="430" width="40" height="40" as="geometry" />
        </mxCell>
        <mxCell id="kikHyL2zl7gTklkctfnL-9" value="" style="rounded=1;whiteSpace=wrap;html=1;" vertex="1" parent="1">
          <mxGeometry x="560" y="560" width="110" height="50" as="geometry" />
        </mxCell>
        <mxCell id="kikHyL2zl7gTklkctfnL-10" value="" style="ellipse;whiteSpace=wrap;html=1;aspect=fixed;" vertex="1" parent="1">
          <mxGeometry x="595" y="630" width="40" height="40" as="geometry" />
        </mxCell>
        <mxCell id="kikHyL2zl7gTklkctfnL-11" value="" style="rounded=1;whiteSpace=wrap;html=1;" vertex="1" parent="1">
          <mxGeometry x="160" y="560" width="110" height="50" as="geometry" />
        </mxCell>
        <mxCell id="kikHyL2zl7gTklkctfnL-12" value="" style="ellipse;whiteSpace=wrap;html=1;aspect=fixed;" vertex="1" parent="1">
          <mxGeometry x="195" y="630" width="40" height="40" as="geometry" />
        </mxCell>
        <mxCell id="kikHyL2zl7gTklkctfnL-13" value="" style="rounded=1;whiteSpace=wrap;html=1;" vertex="1" parent="1">
          <mxGeometry x="359" y="730" width="110" height="50" as="geometry" />
        </mxCell>
        <mxCell id="kikHyL2zl7gTklkctfnL-14" value="" style="ellipse;whiteSpace=wrap;html=1;aspect=fixed;" vertex="1" parent="1">
          <mxGeometry x="394" y="800" width="40" height="40" as="geometry" />
        </mxCell>
      </root>
    </mxGraphModel>
  </diagram>
</mxfile>
